<svg width="119" height="19" viewBox="0 0 119 19" fill="none" xmlns="http://www.w3.org/2000/svg">
<g clip-path="url(#clip0_972_3007)">
<path d="M22.8199 6.36996C22.8199 2.69996 19.7699 -0.290039 16.0199 -0.290039H-0.0101318V19.49H16.0199C19.8299 19.49 22.8199 16.56 22.8199 12.83V6.36996ZM18.5899 12.83C18.5899 14.24 17.5099 15.26 16.0199 15.26H4.21987V3.93996H16.0199C17.5099 3.93996 18.5899 4.95996 18.5899 6.36996V12.83Z" fill="#231F20"/>
<path d="M47.0999 7.47998V11.68H30.3999V19.49H26.1799V7.47998H47.0999Z" fill="#231F20"/>
<path d="M47.1099 -0.290039H26.1699V3.86996H47.1099V-0.290039Z" fill="#231F20"/>
<path d="M94.7499 19.49V-0.290039H90.5199V12.86L77.3999 -0.290039H73.8099V19.49H78.0399V6.27996L91.1599 19.49H94.7499Z" fill="#231F20"/>
<path d="M119.04 7.47998H98.1099V11.68H119.04V7.47998Z" fill="#231F20"/>
<path d="M119.05 -0.290039H98.1099V3.86996H119.05V-0.290039Z" fill="#231F20"/>
<path d="M119.05 15.27H98.1099V19.49H119.05V15.27Z" fill="#231F20"/>
<path d="M70.9299 -0.290039L63.0399 11.03L62.5799 11.7V19.49H58.3499V11.69L57.8899 11.03L49.9899 -0.290039H55.1399L60.4599 7.33996L65.7799 -0.290039H70.9299Z" fill="#231F20"/>
</g>
<defs>
<clipPath id="clip0_972_3007">
<rect width="119" height="19" fill="white"/>
</clipPath>
</defs>
</svg>
