<svg width="52" height="21" viewBox="0 0 52 21" fill="none" xmlns="http://www.w3.org/2000/svg">
<path d="M45.3043 0H6.02528C2.69761 0 0 2.72846 0 6.09419V14.9058C0 18.2715 2.69761 21 6.02528 21H45.3043C48.632 21 51.3296 18.2715 51.3296 14.9058V6.09419C51.3296 2.72846 48.632 0 45.3043 0Z" fill="#FFB3C7"/>
<path d="M41.1034 9.20135C40.6256 8.87205 40.0681 8.68076 39.4908 8.64809C38.9135 8.61542 38.3383 8.74259 37.8272 9.01592C37.316 9.28925 36.8882 9.69839 36.5898 10.1993C36.2915 10.7002 36.1338 11.274 36.1338 11.8588C36.1338 12.4436 36.2915 13.0173 36.5898 13.5183C36.8882 14.0192 37.316 14.4283 37.8272 14.7017C38.3383 14.975 38.9135 15.1022 39.4908 15.0695C40.0681 15.0368 40.6256 14.8455 41.1034 14.5162V14.9056H42.9074V8.81156H41.1034V9.20135ZM39.4627 13.4268C39.1597 13.4104 38.8679 13.3046 38.6237 13.1224C38.3794 12.9402 38.1933 12.6895 38.0885 12.4014C37.9836 12.1134 37.9645 11.8005 38.0335 11.5016C38.1026 11.2026 38.2568 10.9307 38.477 10.7195C38.6973 10.5083 38.9739 10.367 39.2727 10.3131C39.5715 10.2592 39.8794 10.2951 40.1582 10.4164C40.4371 10.5376 40.6747 10.7389 40.8416 10.9952C41.0086 11.2516 41.0975 11.5519 41.0975 11.8589C41.086 12.2859 40.9074 12.6909 40.6008 12.9849C40.2943 13.2789 39.885 13.4378 39.4627 13.4268V13.4268Z" fill="black"/>
<path d="M16.3647 6.0957H14.4768V14.9057H16.3647V6.0957Z" fill="black"/>
<path d="M32.9299 8.64766C32.5752 8.62646 32.2208 8.6928 31.8971 8.84097C31.5734 8.98915 31.2902 9.2147 31.0718 9.49821V8.81193H29.2753V14.9058H31.0934V11.7032C31.0794 11.5192 31.1048 11.3344 31.1678 11.1612C31.2307 10.9881 31.3298 10.8306 31.4583 10.6996C31.5868 10.5687 31.7417 10.4672 31.9124 10.4022C32.0831 10.3371 32.2657 10.31 32.4476 10.3227C33.2405 10.3227 33.6962 10.8018 33.6962 11.6906V14.9058H35.4983V11.0304C35.4982 9.61212 34.3833 8.64766 32.9299 8.64766Z" fill="black"/>
<path d="M22.0716 9.20135C21.5938 8.87205 21.0362 8.68076 20.4589 8.64809C19.8816 8.61542 19.3065 8.74259 18.7953 9.01592C18.2841 9.28925 17.8564 9.69839 17.558 10.1993C17.2596 10.7002 17.1019 11.274 17.1019 11.8588C17.1019 12.4436 17.2596 13.0173 17.558 13.5183C17.8564 14.0192 18.2841 14.4283 18.7953 14.7017C19.3065 14.975 19.8816 15.1022 20.4589 15.0695C21.0362 15.0368 21.5938 14.8455 22.0716 14.5162V14.9056H23.8756V8.81156H22.0716V9.20135ZM20.4308 13.4268C20.1277 13.4105 19.836 13.3047 19.5917 13.1225C19.3474 12.9403 19.1613 12.6896 19.0564 12.4016C18.9515 12.1135 18.9324 11.8006 19.0014 11.5017C19.0704 11.2027 19.2246 10.9308 19.4449 10.7196C19.6651 10.5083 19.9417 10.367 20.2405 10.3131C20.5394 10.2592 20.8472 10.2951 21.1261 10.4163C21.4049 10.5376 21.6425 10.7388 21.8095 10.9952C21.9765 11.2516 22.0654 11.5519 22.0654 11.8589C22.0539 12.2859 21.8753 12.6909 21.5688 12.9849C21.2623 13.2788 20.853 13.4377 20.4308 13.4268H20.4308Z" fill="black"/>
<path d="M26.6667 9.60525V8.81149H24.8197V14.9056H26.6706V12.0606C26.6706 11.1006 27.6994 10.5846 28.4132 10.5846C28.4204 10.5846 28.4274 10.5853 28.4346 10.5854V8.81185C28.1002 8.80277 27.7679 8.86928 27.4621 9.00654C27.1562 9.14379 26.8845 9.34833 26.6667 9.60525V9.60525Z" fill="black"/>
<path d="M44.8225 12.7446C44.5986 12.7446 44.3797 12.8118 44.1935 12.9377C44.0073 13.0635 43.8622 13.2424 43.7765 13.4516C43.6908 13.6609 43.6684 13.8912 43.7121 14.1133C43.7558 14.3355 43.8636 14.5395 44.022 14.6997C44.1803 14.8598 44.3821 14.9689 44.6017 15.0131C44.8213 15.0573 45.049 15.0346 45.2559 14.9479C45.4628 14.8612 45.6396 14.7144 45.764 14.5261C45.8885 14.3378 45.9549 14.1164 45.9549 13.8899C45.9549 13.7395 45.9256 13.5905 45.8687 13.4516C45.8118 13.3126 45.7284 13.1864 45.6232 13.08C45.5181 12.9737 45.3933 12.8893 45.2559 12.8318C45.1185 12.7742 44.9712 12.7446 44.8225 12.7446V12.7446Z" fill="black"/>
<path d="M13.1747 6.09448H11.2181C11.2212 6.88808 11.0396 7.67128 10.6882 8.38083C10.3368 9.09039 9.82533 9.70642 9.19512 10.1792L8.42004 10.7664L11.4235 14.9089H13.8928L11.1293 11.0972C11.781 10.442 12.2975 9.66238 12.6486 8.80354C12.9997 7.94471 13.1786 7.02384 13.1747 6.09448V6.09448Z" fill="black"/>
<path d="M8.18146 6.09448H6.22144V14.9085H8.18146V6.09448Z" fill="black"/>
</svg>
