<svg width="13" height="13" viewBox="0 0 13 13" fill="none" xmlns="http://www.w3.org/2000/svg">
<g clip-path="url(#clip0_908_9003)">
<path d="M8.93751 5.09121L4.06251 2.27996M11.375 8.66621V4.33287C11.3748 4.1429 11.3247 3.95631 11.2296 3.79184C11.1345 3.62736 10.9979 3.49078 10.8333 3.39579L7.04168 1.22912C6.87699 1.13404 6.69018 1.08398 6.50001 1.08398C6.30985 1.08398 6.12303 1.13404 5.95834 1.22912L2.16668 3.39579C1.90299 3.39338 1.64748 3.48723 1.44804 3.65974C1.2486 3.83225 1.11893 4.07159 1.08334 4.33287V8.66621C1.08354 8.85618 1.13369 9.04277 1.22876 9.20724C1.32383 9.37172 1.46049 9.5083 1.62501 9.60329L5.41668 11.77C5.58136 11.865 5.76818 11.9151 5.95834 11.9151C6.14851 11.9151 6.33532 11.865 6.50001 11.77L10.2917 9.60329C10.5554 9.6057 10.8109 9.51186 11.0103 9.33934C11.2098 9.16683 11.3394 8.92749 11.375 8.66621Z" stroke="#555555" stroke-width="1.08333" stroke-linecap="round" stroke-linejoin="round"/>
<path d="M1.77124 3.76953L6.49999 6.50495L11.2287 3.76953" stroke="#555555" stroke-width="1.08333" stroke-linecap="round" stroke-linejoin="round"/>
<path d="M6.5 11.96V6.5" stroke="#555555" stroke-width="1.08333" stroke-linecap="round" stroke-linejoin="round"/>
</g>
<defs>
<clipPath id="clip0_908_9003">
<rect width="13" height="13" fill="white"/>
</clipPath>
</defs>
</svg>
